<svg width="150" height="150" viewBox="0 0 150 150" fill="none" xmlns="http://www.w3.org/2000/svg">
<g clip-path="url(#clip0_1_593)">
<path d="M131.25 0H18.75C8.40937 0 0 8.40937 0 18.75V131.25C0 141.591 8.40937 150 18.75 150H131.25C141.591 150 150 141.591 150 131.25V18.75C150 8.40937 141.591 0 131.25 0Z" fill="#2376F5"/>
<path d="M126.562 75H103.125V56.25C103.125 51.075 107.325 51.5625 112.5 51.5625H121.875V28.125H103.125C87.5906 28.125 75 40.7156 75 56.25V75H56.25V98.4375H75V150H103.125V98.4375H117.188L126.562 75Z" fill="white"/>
</g>
<defs>
<clipPath id="clip0_1_593">
<rect width="150" height="150" fill="white"/>
</clipPath>
</defs>
</svg>
