<svg width="150" height="150" viewBox="0 0 150 150" fill="none" xmlns="http://www.w3.org/2000/svg">
<g clip-path="url(#clip0_1_604)">
<path fill-rule="evenodd" clip-rule="evenodd" d="M112.5 150H37.5C27.5545 150 18.0165 146.049 10.984 139.016C3.95146 131.984 0.000435086 122.445 0 112.5L0 37.5C0.000435086 27.5545 3.95146 18.0165 10.984 10.984C18.0165 3.95146 27.5545 0.000435086 37.5 0L112.5 0C122.446 0 131.984 3.95088 139.017 10.9835C146.049 18.0161 150 27.5544 150 37.5V112.5C150 122.446 146.049 131.984 139.017 139.017C131.984 146.049 122.446 150 112.5 150Z" fill="black"/>
<path fill-rule="evenodd" clip-rule="evenodd" d="M70.3125 42.1875H112.5C117.908 42.1872 123.109 40.1101 127.029 36.3853C130.949 32.6605 133.289 27.5725 133.566 22.1719C133.843 16.7713 132.035 11.4707 128.516 7.36468C124.997 3.25868 120.036 0.660895 114.656 0.107813C113.939 0.0679687 113.229 0 112.5 0H37.5C27.5545 0.000435086 18.0165 3.95146 10.984 10.984C3.95146 18.0165 0.000435086 27.5545 0 37.5L0 112.5C0.000435102 93.8521 7.40848 75.9681 20.5945 62.782C33.7806 49.596 51.6646 42.1879 70.3125 42.1875Z" fill="#CE221E"/>
<path fill-rule="evenodd" clip-rule="evenodd" d="M112.5 75C105.083 75 97.833 77.1993 91.6661 81.3199C85.4993 85.4404 80.6928 91.2971 77.8545 98.1494C75.0162 105.002 74.2736 112.542 75.7206 119.816C77.1675 127.09 80.739 133.772 85.9835 139.017C91.228 144.261 97.9098 147.833 105.184 149.279C112.458 150.726 119.998 149.984 126.851 147.145C133.703 144.307 139.56 139.501 143.68 133.334C147.801 127.167 150 119.917 150 112.5V37.5C150 47.4456 146.049 56.9839 139.017 64.0165C131.984 71.0491 122.446 75 112.5 75Z" fill="black"/>
<path fill-rule="evenodd" clip-rule="evenodd" d="M79.6875 32.8125C79.6873 32.1969 79.8085 31.5873 80.044 31.0185C80.2795 30.4497 80.6247 29.9328 81.0601 29.4975C81.4954 29.0622 82.0122 28.7169 82.581 28.4814C83.1498 28.2459 83.7594 28.1248 84.375 28.125H94.2867C95.3707 28.1252 96.4211 28.5011 97.2591 29.1887C98.0971 29.8763 98.6709 30.833 98.8828 31.8961C99.7311 36.1244 102.019 39.928 105.356 42.6592C108.694 45.3903 112.875 46.8802 117.188 46.875C117.803 46.8748 118.413 46.9959 118.982 47.2314C119.55 47.4669 120.067 47.8122 120.503 48.2475C120.938 48.6828 121.283 49.1997 121.519 49.7685C121.754 50.3372 121.875 50.9469 121.875 51.5625V60.9375C121.875 61.5531 121.754 62.1628 121.519 62.7315C121.283 63.3003 120.938 63.8172 120.503 64.2525C120.067 64.6878 119.55 65.0331 118.982 65.2686C118.413 65.5041 117.803 65.6252 117.188 65.625C110.604 65.6346 104.135 63.9018 98.4375 60.6023V98.4375C98.4372 104.927 96.5126 111.27 92.9072 116.666C89.3018 122.061 84.1774 126.266 78.1821 128.749C72.1868 131.233 65.5897 131.882 59.2252 130.616C52.8607 129.35 47.0145 126.225 42.4259 121.637C37.8373 117.048 34.7124 111.202 33.4463 104.837C32.1803 98.4728 32.8299 91.8758 35.3131 85.8804C37.7962 79.8851 42.0014 74.7607 47.3969 71.1553C52.7924 67.5499 59.1358 65.6253 65.625 65.625C66.2407 65.6248 66.8503 65.7459 67.4191 65.9814C67.9879 66.2169 68.5047 66.5622 68.94 66.9975C69.3753 67.4328 69.7206 67.9497 69.9561 68.5185C70.1916 69.0872 70.3127 69.6969 70.3125 70.3125V79.6875C70.3127 80.3031 70.1916 80.9128 69.9561 81.4815C69.7206 82.0503 69.3753 82.5672 68.94 83.0025C68.5047 83.4378 67.9879 83.7831 67.4191 84.0186C66.8503 84.2541 66.2407 84.3752 65.625 84.375C62.8434 84.3748 60.1242 85.1994 57.8112 86.7447C55.4983 88.2899 53.6955 90.4863 52.6309 93.0562C51.5664 95.626 51.2877 98.4539 51.8304 101.182C52.373 103.91 53.7124 106.416 55.6793 108.383C57.6463 110.35 60.1523 111.69 62.8805 112.232C65.6087 112.775 68.4365 112.496 71.0063 111.432C73.5762 110.367 75.7726 108.564 77.3179 106.251C78.8631 103.938 79.6878 101.219 79.6875 98.4375V32.8125Z" fill="#CE221E"/>
<path fill-rule="evenodd" clip-rule="evenodd" d="M75 28.125C74.9998 27.5094 75.121 26.8998 75.3565 26.331C75.592 25.7622 75.9372 25.2453 76.3726 24.81C76.8079 24.3747 77.3247 24.0294 77.8935 23.7939C78.4623 23.5584 79.0719 23.4373 79.6875 23.4375H89.5992C90.6832 23.4377 91.7336 23.8136 92.5716 24.5012C93.4096 25.1888 93.9834 26.1455 94.1953 27.2086C95.0436 31.4369 97.3313 35.2405 100.669 37.9717C104.006 40.7028 108.187 42.1927 112.5 42.1875C113.116 42.1873 113.725 42.3084 114.294 42.5439C114.863 42.7794 115.38 43.1247 115.815 43.56C116.25 43.9953 116.596 44.5122 116.831 45.081C117.067 45.6497 117.188 46.2594 117.188 46.875V56.25C117.188 56.8656 117.067 57.4753 116.831 58.044C116.596 58.6128 116.25 59.1297 115.815 59.565C115.38 60.0003 114.863 60.3456 114.294 60.5811C113.725 60.8166 113.116 60.9377 112.5 60.9375C105.916 60.9471 99.4473 59.2143 93.75 55.9148V93.75C93.7497 100.239 91.8251 106.583 88.2197 111.978C84.6143 117.374 79.4899 121.579 73.4946 124.062C67.4993 126.545 60.9022 127.195 54.5377 125.929C48.1732 124.663 42.327 121.538 37.7384 116.949C33.1498 112.361 30.0249 106.514 28.7588 100.15C27.4928 93.7853 28.1424 87.1883 30.6256 81.1929C33.1087 75.1976 37.3139 70.0732 42.7094 66.4678C48.1049 62.8624 54.4483 60.9378 60.9375 60.9375C61.5532 60.9373 62.1628 61.0584 62.7316 61.2939C63.3004 61.5294 63.8172 61.8747 64.2525 62.31C64.6878 62.7453 65.0331 63.2622 65.2686 63.831C65.5041 64.3997 65.6252 65.0094 65.625 65.625V75C65.6252 75.6156 65.5041 76.2253 65.2686 76.794C65.0331 77.3628 64.6878 77.8797 64.2525 78.315C63.8172 78.7503 63.3004 79.0956 62.7316 79.3311C62.1628 79.5666 61.5532 79.6877 60.9375 79.6875C58.1559 79.6873 55.4367 80.5119 53.1237 82.0572C50.8108 83.6024 49.008 85.7988 47.9434 88.3687C46.8789 90.9385 46.6002 93.7664 47.1429 96.4946C47.6855 99.2228 49.0249 101.729 50.9918 103.696C52.9588 105.663 55.4648 107.002 58.193 107.545C60.9212 108.087 63.749 107.809 66.3188 106.744C68.8887 105.679 71.0851 103.877 72.6304 101.564C74.1756 99.2509 75.0003 96.5316 75 93.75V28.125Z" fill="#2376F5"/>
<path fill-rule="evenodd" clip-rule="evenodd" d="M53.6157 105.759C55.2123 108.378 57.6213 110.404 60.4757 111.526C63.3301 112.649 66.4733 112.808 69.4263 111.979C72.3794 111.149 74.9803 109.377 76.8328 106.933C78.6853 104.488 79.6878 101.505 79.6875 98.4375V32.8125C79.6873 32.1969 79.8085 31.5873 80.044 31.0185C80.2795 30.4497 80.6247 29.9328 81.0601 29.4975C81.4954 29.0622 82.0122 28.7169 82.581 28.4814C83.1498 28.2459 83.7594 28.1248 84.375 28.125H94.2868C94.3266 28.125 94.3641 28.125 94.4016 28.1273C95.5036 32.4839 98.1452 36.2944 101.838 38.8547C103.558 41.3329 105.852 43.3573 108.526 44.7542C111.199 46.151 114.171 46.8788 117.188 46.875V56.25C117.188 56.8656 117.067 57.4753 116.831 58.044C116.596 58.6128 116.25 59.1297 115.815 59.565C115.38 60.0003 114.863 60.3456 114.294 60.5811C113.725 60.8166 113.116 60.9377 112.5 60.9375C105.916 60.9471 99.4473 59.2143 93.75 55.9148V93.75C93.7501 99.9573 91.9896 106.037 88.6727 111.284C85.3558 116.531 80.6187 120.729 75.0114 123.392C69.4041 126.054 63.1567 127.071 56.9944 126.325C50.8321 125.579 45.0078 123.101 40.1977 119.177C36.2749 114.367 33.7969 108.543 33.0513 102.381C32.3057 96.2187 33.3232 89.9716 35.9855 84.3645C38.6478 78.7575 42.8457 74.0205 48.0921 70.7035C53.3385 67.3865 59.418 65.6255 65.625 65.625V75C65.6252 75.6156 65.5041 76.2253 65.2686 76.794C65.0331 77.3628 64.6878 77.8797 64.2525 78.315C63.8172 78.7503 63.3004 79.0956 62.7316 79.3311C62.1628 79.5666 61.5532 79.6877 60.9375 79.6875C57.8706 79.6879 54.8879 80.6908 52.4437 82.5434C49.9996 84.396 48.2279 86.9967 47.3987 89.9494C46.5695 92.9021 46.7282 96.0449 47.8505 98.8991C48.9728 101.753 50.9974 104.162 53.6157 105.759Z" fill="white"/>
</g>
<defs>
<clipPath id="clip0_1_604">
<rect width="150" height="150" fill="white"/>
</clipPath>
</defs>
</svg>
