<svg width="150" height="150" viewBox="0 0 150 150" fill="none" xmlns="http://www.w3.org/2000/svg">
<g clip-path="url(#clip0_1_582)">
<path d="M9.375 10.2064C-2.41251 22.4501 -5.81145e-06 35.4564 -5.81145e-06 74.9689C-5.81145e-06 107.781 -5.72501 140.675 24.2375 148.419C33.5937 150.825 116.494 150.825 125.838 148.406C138.312 145.188 148.462 135.069 149.85 117.425C150.044 114.963 150.044 35.0189 149.844 32.5064C148.369 13.7126 136.8 2.88136 121.556 0.687607C118.062 0.181357 117.363 0.0313569 99.4375 0.000106886C35.8562 0.0313569 21.9187 -2.79989 9.375 10.2064Z" fill="url(#paint0_linear_1_582)"/>
<path d="M74.9875 19.6186C52.2937 19.6186 30.7437 17.5999 22.5125 38.7249C19.1125 47.4499 19.6062 58.7811 19.6062 75.0061C19.6062 89.2436 19.15 102.625 22.5125 111.281C30.725 132.419 52.45 130.394 74.975 130.394C96.7062 130.394 119.113 132.656 127.444 111.281C130.85 102.469 130.35 91.3061 130.35 75.0061C130.35 53.3686 131.544 39.3999 121.05 28.9124C110.425 18.2874 96.0563 19.6186 74.9625 19.6186H74.9875ZM70.025 29.5999C117.363 29.5249 123.387 24.2624 120.062 97.3686C118.881 123.225 99.1937 120.387 74.9937 120.387C30.8687 120.387 29.6 119.125 29.6 74.9811C29.6 30.3249 33.1 29.6249 70.025 29.5874V29.5999ZM104.55 38.7936C100.881 38.7936 97.9062 41.7686 97.9062 45.4374C97.9062 49.1061 100.881 52.0811 104.55 52.0811C108.219 52.0811 111.194 49.1061 111.194 45.4374C111.194 41.7686 108.219 38.7936 104.55 38.7936ZM74.9875 46.5624C59.2812 46.5624 46.55 59.2999 46.55 75.0061C46.55 90.7124 59.2812 103.444 74.9875 103.444C90.6937 103.444 103.419 90.7124 103.419 75.0061C103.419 59.2999 90.6937 46.5624 74.9875 46.5624ZM74.9875 56.5436C99.3937 56.5436 99.425 93.4686 74.9875 93.4686C50.5875 93.4686 50.55 56.5436 74.9875 56.5436Z" fill="white"/>
</g>
<defs>
<linearGradient id="paint0_linear_1_582" x1="74.7785" y1="-0.239746" x2="74.7785" y2="150.222" gradientUnits="userSpaceOnUse">
<stop stop-color="#E84A4A"/>
<stop offset="1" stop-color="#F1833F"/>
</linearGradient>
<clipPath id="clip0_1_582">
<rect width="150" height="150" fill="white"/>
</clipPath>
</defs>
</svg>
