<svg width="30" height="30" viewBox="0 0 30 30" fill="none" xmlns="http://www.w3.org/2000/svg">
<path fill-rule="evenodd" clip-rule="evenodd" d="M26.7188 6.59068C26.7188 4.76294 25.2371 3.28125 23.4093 3.28125H6.59068C4.76294 3.28125 3.28125 4.76294 3.28125 6.59068V23.4093C3.28125 25.2371 4.76294 26.7188 6.59068 26.7188H23.4093C25.2371 26.7188 26.7188 25.2371 26.7188 23.4093V6.59068ZM22.698 13.5034C21.1859 13.5203 19.7768 13.0632 18.5397 12.2165V18.16C18.5397 20.8016 16.7315 23.0708 14.1746 23.6634C10.6862 24.4593 7.73323 21.9362 7.36078 18.9221C6.97131 15.908 8.89365 13.2664 11.84 12.6737C12.4158 12.5552 13.2817 12.5552 13.7285 12.6568V15.8402C13.591 15.8064 13.4623 15.7725 13.3268 15.7556C12.1753 15.5524 11.0601 16.1281 10.6029 17.178C10.1457 18.2279 10.4517 19.447 11.383 20.1583C12.1619 20.7679 13.0262 20.8525 13.9067 20.4461C14.7872 20.0567 15.2605 19.3455 15.362 18.3803C15.379 18.2449 15.378 18.0924 15.378 17.94V6.50994C15.378 6.18823 15.3805 6.20227 15.7023 6.20227H18.2253C18.4117 6.20227 18.4794 6.22907 18.4963 6.44933C18.6317 8.41359 20.1231 10.0864 22.0365 10.3405C22.2397 10.3743 22.4575 10.3877 22.698 10.4046V13.5034Z" fill="#FF8C2F"/>
</svg>
