<svg width="31" height="28" viewBox="0 0 31 28" fill="none" xmlns="http://www.w3.org/2000/svg">
<path d="M7.75 9.33331H12.9167" stroke="#949494" stroke-width="1.5" stroke-linecap="round" stroke-linejoin="round"/>
<path d="M26.9093 10.5H23.5484C21.2428 10.5 19.375 12.0668 19.375 14C19.375 15.9331 21.244 17.5 23.5471 17.5H26.9093C27.0178 17.5 27.0707 17.5 27.116 17.4976C27.8135 17.4591 28.3689 16.9936 28.4141 16.4091C28.4167 16.3718 28.4167 16.3263 28.4167 16.2365V11.7635C28.4167 11.6736 28.4167 11.6281 28.4141 11.5908C28.3676 11.0063 27.8135 10.5408 27.116 10.5023C27.072 10.5 27.0178 10.5 26.9093 10.5Z" stroke="#949494" stroke-width="1.5"/>
<path d="M26.3561 10.3134C26.2553 8.1294 25.9324 6.79006 24.8874 5.8474C23.3749 4.48006 20.9388 4.48006 16.068 4.48006H12.193C7.32208 4.48006 4.88599 4.48006 3.37345 5.8474C1.85962 7.21356 1.85962 9.4139 1.85962 13.8134C1.85962 18.2129 1.85962 20.4132 3.37345 21.7794C4.88599 23.1467 7.32208 23.1467 12.193 23.1467H16.068C20.9388 23.1467 23.3749 23.1467 24.8874 21.7794C25.9324 20.8367 26.2566 19.4974 26.3561 17.3134" stroke="#949494" stroke-width="1.5"/>
<path d="M23.2384 14H23.2513" stroke="#FF8C2F" stroke-width="2" stroke-linecap="round" stroke-linejoin="round"/>
</svg>
