<svg width="30" height="30" viewBox="0 0 30 30" fill="none" xmlns="http://www.w3.org/2000/svg">
<path d="M15.0956 3.74814H15.2625C16.8037 3.75376 24.6131 3.81001 26.7187 4.37626C27.3553 4.54908 27.9353 4.88593 28.4009 5.35315C28.8665 5.82038 29.2013 6.40161 29.3719 7.03876C29.5612 7.75126 29.6944 8.69439 29.7844 9.66751L29.8031 9.86251L29.8444 10.35L29.8594 10.545C29.9812 12.2588 29.9962 13.8638 29.9981 14.2144V14.355C29.9962 14.7188 29.9794 16.4325 29.8444 18.2175L29.8294 18.4144L29.8125 18.6094C29.7187 19.6819 29.58 20.7469 29.3719 21.5306C29.2013 22.1678 28.8665 22.749 28.4009 23.2163C27.9353 23.6835 27.3553 24.0203 26.7187 24.1931C24.5437 24.7781 16.2769 24.8194 15.1312 24.8213H14.865C14.2856 24.8213 11.8894 24.81 9.37687 24.7238L9.05812 24.7125L8.895 24.705L8.57437 24.6919L8.25375 24.6788C6.1725 24.5869 4.19062 24.4388 3.2775 24.1913C2.64118 24.0186 2.06128 23.682 1.59572 23.2152C1.13016 22.7483 0.795231 22.1674 0.624375 21.5306C0.41625 20.7488 0.2775 19.6819 0.18375 18.6094L0.16875 18.4125L0.15375 18.2175C0.0606814 16.947 0.00940372 15.6739 0 14.4L0 14.1694C0.00375 13.7663 0.01875 12.3731 0.12 10.8356L0.133125 10.6425L0.13875 10.545L0.15375 10.35L0.195 9.86251L0.21375 9.66751C0.30375 8.69439 0.436875 7.74939 0.62625 7.03876C0.79682 6.40161 1.13162 5.82038 1.5972 5.35315C2.06278 4.88593 2.64283 4.54908 3.27937 4.37626C4.1925 4.13251 6.17437 3.98251 8.25562 3.88876L8.57437 3.87564L8.89687 3.86439L9.05812 3.85876L9.37875 3.84564C11.1632 3.78827 12.9484 3.75639 14.7337 3.75001L15.0956 3.74814ZM12 9.76689V18.8006L19.7944 14.2856L12 9.76689Z" fill="#FF8C2F"/>
</svg>
