<svg width="36" height="36" viewBox="0 0 36 36" fill="none" xmlns="http://www.w3.org/2000/svg">
<rect y="-3.05176e-05" width="36" height="36.0001" rx="18" fill="url(#paint0_linear_1_989)"/>
<path d="M25.8574 21.178V16.618C25.8574 13.2309 23.6575 10.2774 20.6287 9.17419C20.664 8.99998 20.6836 8.82195 20.6836 8.64385C20.6837 7.18451 19.4816 5.99997 18.0006 5.99997C16.5196 5.99997 15.3175 7.18451 15.3175 8.64385C15.3175 8.81807 15.3371 8.99222 15.3685 9.15868C14.3275 9.52256 13.365 10.0993 12.544 10.8813C10.9962 12.3522 10.1438 14.3303 10.1438 16.4516V21.178C10.1438 21.3445 10.0063 21.4839 9.83339 21.4839C8.38381 21.4839 7.14633 22.56 7.01276 23.9303C6.9381 24.6929 7.1935 25.4516 7.71596 26.0168C8.2345 26.5781 8.977 26.9033 9.75086 26.9033H14.4886C14.685 28.6413 16.1857 30 18.0006 30C19.8155 30 21.3162 28.6413 21.5126 26.9033H26.2503C27.0242 26.9033 27.7667 26.5781 28.2852 26.0168C28.8037 25.4516 29.0591 24.6929 28.9884 23.9303C28.8548 22.56 27.6135 21.4839 26.1678 21.4839C25.9949 21.4838 25.8574 21.3483 25.8574 21.178ZM18.0006 7.54833C18.6134 7.54833 19.1123 8.03995 19.1123 8.64379C19.1123 8.69408 19.1044 8.74056 19.0966 8.79085C18.8294 8.75213 18.5583 8.72505 18.2873 8.71729C17.8198 8.70177 17.3602 8.7328 16.9045 8.79473C16.8966 8.74444 16.8887 8.69796 16.8887 8.64767C16.8889 8.03995 17.3878 7.54833 18.0006 7.54833ZM18.0006 28.4515C17.0539 28.4515 16.2603 27.7857 16.0756 26.9032H19.9255C19.7409 27.7858 18.9474 28.4515 18.0006 28.4515ZM27.4249 24.0774C27.4563 24.4103 27.3502 24.7316 27.1263 24.9754C26.8945 25.2193 26.5881 25.3548 26.2503 25.3548H9.75092C9.41307 25.3548 9.1067 25.2193 8.87879 24.9754C8.65095 24.7316 8.54487 24.4102 8.57629 24.0774C8.63127 23.4929 9.18522 23.0322 9.83339 23.0322C10.8705 23.0322 11.7151 22.2 11.7151 21.178V16.4516C11.7151 14.7561 12.3986 13.1729 13.6361 11.9961C14.8185 10.8697 16.3585 10.258 18.0006 10.258C18.0792 10.258 18.1538 10.258 18.2324 10.2619C21.5676 10.378 24.2861 13.2309 24.2861 16.618V21.178C24.2861 22.2 25.1307 23.0322 26.1678 23.0322C26.816 23.0322 27.366 23.4929 27.4249 24.0774Z" fill="#FEFEFE"/>
<defs>
<linearGradient id="paint0_linear_1_989" x1="18" y1="-3.05176e-05" x2="18" y2="36" gradientUnits="userSpaceOnUse">
<stop stop-color="#E84A4A"/>
<stop offset="1" stop-color="#F1833F"/>
</linearGradient>
</defs>
</svg>
